<svg width="20" height="20" viewBox="0 0 20 20" fill="none" xmlns="http://www.w3.org/2000/svg">
<path d="M7.67485 18.5827H12.3264C14.4732 18.5827 15.9291 18.1292 16.9036 17.1523C17.8805 16.1778 18.334 14.7242 18.334 12.5751V7.92355C18.334 5.77684 17.8805 4.32089 16.9036 3.34638C15.9291 2.36955 14.4755 1.91602 12.3264 1.91602H7.67485C5.52814 1.91602 4.07219 2.36955 3.09768 3.34638C2.12085 4.32089 1.66732 5.77684 1.66732 7.92355V12.5751C1.66732 14.7219 2.12085 16.1778 3.09768 17.1523C4.07219 18.1292 5.52814 18.5827 7.67485 18.5827ZM12.3264 3.07891C14.1452 3.07891 15.3384 3.42546 16.0826 4.16739C16.8245 4.91164 17.1711 6.10478 17.1711 7.92355V12.5751C17.1711 14.3939 16.8245 15.5871 16.0826 16.3313C15.3384 17.0732 14.1452 17.4198 12.3264 17.4198H7.67485C5.85608 17.4198 4.66295 17.0732 3.91869 16.3313C3.17676 15.5871 2.83022 14.3939 2.83022 12.5751V7.92355C2.83022 6.10478 3.17676 4.91164 3.91869 4.16739C4.66295 3.42546 5.85608 3.07891 7.67485 3.07891H12.3264Z" fill="white"/>
<path d="M13.1009 18.6255C13.4219 18.6255 13.6824 18.365 13.6824 18.0441V2.53798C13.6824 2.21702 13.4219 1.95653 13.1009 1.95653C12.78 1.95653 12.5195 2.21702 12.5195 2.53798V18.0441C12.5195 18.365 12.78 18.6255 13.1009 18.6255Z" fill="white"/>
<path d="M7.67485 12.5632C7.8237 12.5632 7.97255 12.5074 8.08652 12.3934L10.0704 10.4098C10.2984 10.1819 10.2984 9.81448 10.0704 9.58659L8.08652 7.60296C7.85859 7.37506 7.49111 7.37506 7.26319 7.60296C7.03526 7.83086 7.03526 8.19828 7.26319 8.42618L8.83543 9.9982L7.26319 11.5702C7.03526 11.7981 7.03526 12.1655 7.26319 12.3934C7.49111 12.6213 7.526 12.5632 7.67485 12.5632Z" fill="white"/>
</svg>
