<svg width="20" height="20" viewBox="0 0 20 20" fill="none" xmlns="http://www.w3.org/2000/svg">
<path d="M9.99707 1.66602C10.5496 1.66602 11.08 1.88571 11.4707 2.27637C11.8614 2.66707 12.0811 3.19747 12.0811 3.75V4.10547C12.8051 4.3605 13.4759 4.74743 14.0596 5.24609L14.3682 5.06738C14.6053 4.93059 14.8673 4.84228 15.1387 4.80664C15.4101 4.771 15.6858 4.78942 15.9502 4.86035C16.2145 4.93129 16.4626 5.05304 16.6797 5.21973C16.8968 5.38644 17.079 5.59492 17.2158 5.83203C17.3524 6.06894 17.4409 6.33043 17.4766 6.60156C17.5122 6.8729 17.4937 7.14876 17.4229 7.41309C17.3519 7.6774 17.2301 7.9255 17.0635 8.14258C16.8969 8.35958 16.6891 8.54194 16.4521 8.67871L16.1436 8.85645C16.2824 9.61169 16.2824 10.3864 16.1436 11.1416L16.4521 11.3193V11.3184C16.931 11.5946 17.2806 12.05 17.4238 12.584C17.567 13.1179 17.4921 13.6872 17.2158 14.166C16.9396 14.6446 16.4849 14.9945 15.9512 15.1377C15.4173 15.2809 14.848 15.2059 14.3691 14.9297L14.0586 14.75C13.4754 15.2496 12.805 15.6376 12.0811 15.8936V16.25C12.081 16.8024 11.8613 17.332 11.4707 17.7227C11.08 18.1134 10.5496 18.333 9.99707 18.333C9.4447 18.3329 8.915 18.1132 8.52441 17.7227C8.13383 17.332 7.91415 16.8024 7.91406 16.25V15.8936C7.18978 15.6386 6.51841 15.2517 5.93457 14.7529L5.62598 14.9316C5.14712 15.2079 4.57789 15.2829 4.04395 15.1396C3.51005 14.9964 3.05456 14.6468 2.77832 14.168C2.50206 13.6891 2.42803 13.1199 2.57129 12.5859C2.71455 12.052 3.06412 11.5966 3.54297 11.3203L3.85059 11.1426C3.71184 10.3876 3.71187 9.61343 3.85059 8.8584L3.54297 8.68066C3.06418 8.40444 2.71459 7.94888 2.57129 7.41504C2.42805 6.88116 2.50215 6.31183 2.77832 5.83301C3.05455 5.35421 3.51008 5.00462 4.04395 4.86133C4.5779 4.71807 5.14711 4.79307 5.62598 5.06934L5.93652 5.24902C6.51974 4.74945 7.19004 4.36141 7.91406 4.10547V3.75C7.91406 3.19747 8.13371 2.66707 8.52441 2.27637C8.915 1.88583 9.44475 1.66614 9.99707 1.66602ZM9.99707 7.22168C9.44782 7.22168 8.91083 7.38438 8.4541 7.68945C7.9973 7.99468 7.64091 8.42895 7.43066 8.93652C7.22053 9.44401 7.16531 10.0023 7.27246 10.541C7.3796 11.0796 7.64399 11.5745 8.03223 11.9629C8.42071 12.3514 8.91624 12.6165 9.45508 12.7236C9.99378 12.8308 10.5521 12.7756 11.0596 12.5654C11.5671 12.3552 12.0014 11.9988 12.3066 11.542C12.6117 11.0853 12.7744 10.5483 12.7744 9.99902C12.7744 9.26237 12.4818 8.55606 11.9609 8.03516C11.4401 7.51427 10.7337 7.22173 9.99707 7.22168Z" fill="white"/>
</svg>
