<svg width="20" height="20" viewBox="0 0 20 20" fill="none" xmlns="http://www.w3.org/2000/svg">
<path d="M12.3251 18.5827H7.67355C5.52684 18.5827 4.07089 18.1292 3.09638 17.1523C2.11955 16.1778 1.66602 14.7242 1.66602 12.5751V7.92355C1.66602 5.77684 2.11955 4.32089 3.09638 3.34638C4.07089 2.36955 5.52451 1.91602 7.67355 1.91602H12.3251C14.4719 1.91602 15.9278 2.36955 16.9023 3.34638C17.8792 4.32089 18.3327 5.77684 18.3327 7.92355V12.5751C18.3327 14.7219 17.8792 16.1778 16.9023 17.1523C15.9278 18.1292 14.4719 18.5827 12.3251 18.5827ZM7.67355 3.07891C5.85478 3.07891 4.66164 3.42546 3.91739 4.16739C3.17546 4.91164 2.82891 6.10478 2.82891 7.92355V12.5751C2.82891 14.3939 3.17546 15.5871 3.91739 16.3313C4.66164 17.0732 5.85478 17.4198 7.67355 17.4198H12.3251C14.1439 17.4198 15.3371 17.0732 16.0813 16.3313C16.8232 15.5871 17.1698 14.3939 17.1698 12.5751V7.92355C17.1698 6.10478 16.8232 4.91164 16.0813 4.16739C15.3371 3.42546 14.1439 3.07891 12.3251 3.07891H7.67355Z" fill="white"/>
<path d="M6.89906 18.6255C6.5781 18.6255 6.31761 18.365 6.31761 18.0441V2.53798C6.31761 2.21702 6.5781 1.95653 6.89906 1.95653C7.22002 1.95653 7.48051 2.21702 7.48051 2.53798V18.0441C7.48051 18.365 7.22002 18.6255 6.89906 18.6255Z" fill="white"/>
<path d="M12.3251 12.5632C12.1763 12.5632 12.0274 12.5074 11.9135 12.3934L9.92957 10.4098C9.70165 10.1819 9.70165 9.81448 9.92957 9.58659L11.9135 7.60296C12.1414 7.37506 12.5089 7.37506 12.7368 7.60296C12.9647 7.83086 12.9647 8.19828 12.7368 8.42618L11.1646 9.9982L12.7368 11.5702C12.9647 11.7981 12.9647 12.1655 12.7368 12.3934C12.5089 12.6213 12.474 12.5632 12.3251 12.5632Z" fill="white"/>
</svg>
