<svg width="20" height="20" viewBox="0 0 20 20" fill="none" xmlns="http://www.w3.org/2000/svg">
<path d="M7.6053 6.36205C8.06554 6.36205 8.43863 5.98896 8.43863 5.52872C8.43863 5.06848 8.06554 4.69539 7.6053 4.69539V5.52872V6.36205ZM3.01915 4.69539C2.55891 4.69539 2.18581 5.06848 2.18581 5.52872C2.18581 5.98896 2.55891 6.36205 3.01915 6.36205V5.52872V4.69539ZM17 6.36205C17.4602 6.36205 17.8333 5.98896 17.8333 5.52872C17.8333 5.06848 17.4602 4.69539 17 4.69539V5.52872V6.36205ZM12.1915 4.69539C11.7312 4.69539 11.3581 5.06848 11.3581 5.52872C11.3581 5.98896 11.7312 6.36205 12.1915 6.36205V5.52872V4.69539ZM8.76343 4V4.83333H11.0256V4V3.16667H8.76343V4ZM11.7796 4.75405H10.9463V7.0162H11.7796H12.613V4.75405H11.7796ZM11.0256 7.77025V6.93692H8.76343V7.77025V8.60358H11.0256V7.77025ZM8.00938 7.0162H8.84271V4.75405H8.00938H7.17604V7.0162H8.00938ZM8.76343 7.77025V6.93692C8.80721 6.93692 8.84271 6.97241 8.84271 7.0162H8.00938H7.17604C7.17604 7.89289 7.88674 8.60358 8.76343 8.60358V7.77025ZM11.7796 7.0162H10.9463C10.9463 6.97242 10.9818 6.93692 11.0256 6.93692V7.77025V8.60358C11.9023 8.60358 12.613 7.89289 12.613 7.0162H11.7796ZM11.0256 4V4.83333C10.9818 4.83333 10.9463 4.79783 10.9463 4.75405H11.7796H12.613C12.613 3.87737 11.9023 3.16667 11.0256 3.16667V4ZM8.76343 4V3.16667C7.88674 3.16667 7.17604 3.87736 7.17604 4.75405H8.00938H8.84271C8.84271 4.79784 8.80721 4.83333 8.76343 4.83333V4ZM2.75405 12.1532V12.9865H5.0162V12.1532V11.3198H2.75405V12.1532ZM5.77025 12.9072H4.93692V15.1694H5.77025H6.60358V12.9072H5.77025ZM5.0162 15.9234V15.0901H2.75405V15.9234V16.7568H5.0162V15.9234ZM2 15.1694H2.83333V12.9072H2H1.16667V15.1694H2ZM2.75405 15.9234V15.0901C2.79784 15.0901 2.83333 15.1256 2.83333 15.1694H2H1.16667C1.16667 16.0461 1.87736 16.7568 2.75405 16.7568V15.9234ZM5.77025 15.1694H4.93692C4.93692 15.1256 4.97241 15.0901 5.0162 15.0901V15.9234V16.7568C5.89289 16.7568 6.60358 16.0461 6.60358 15.1694H5.77025ZM5.0162 12.1532V12.9865C4.97241 12.9865 4.93692 12.951 4.93692 12.9072H5.77025H6.60358C6.60358 12.0305 5.89289 11.3198 5.0162 11.3198V12.1532ZM2.75405 12.1532V11.3198C1.87736 11.3198 1.16667 12.0305 1.16667 12.9072H2H2.83333C2.83333 12.951 2.79784 12.9865 2.75405 12.9865V12.1532ZM14.9838 12.1532V12.9865H17.2459V12.1532V11.3198H14.9838V12.1532ZM18 12.9072H17.1667V15.1694H18H18.8333V12.9072H18ZM17.2459 15.9234V15.0901H14.9838V15.9234V16.7568H17.2459V15.9234ZM14.2297 15.1694H15.0631V12.9072H14.2297H13.3964V15.1694H14.2297ZM14.9838 15.9234V15.0901C15.0276 15.0901 15.0631 15.1256 15.0631 15.1694H14.2297H13.3964C13.3964 16.0461 14.1071 16.7568 14.9838 16.7568V15.9234ZM18 15.1694H17.1667C17.1667 15.1256 17.2022 15.0901 17.2459 15.0901V15.9234V16.7568C18.1226 16.7568 18.8333 16.0461 18.8333 15.1694H18ZM17.2459 12.1532V12.9865C17.2022 12.9865 17.1667 12.951 17.1667 12.9072H18H18.8333C18.8333 12.0305 18.1226 11.3198 17.2459 11.3198V12.1532ZM14.9838 12.1532V11.3198C14.1071 11.3198 13.3964 12.0305 13.3964 12.9072H14.2297H15.0631C15.0631 12.951 15.0276 12.9865 14.9838 12.9865V12.1532ZM7.6053 5.52872V4.69539H3.01915V5.52872V6.36205H7.6053V5.52872ZM17 5.52872V4.69539H12.1915V5.52872V6.36205H17V5.52872ZM4.03829 11.134H3.20496V12.1532H4.03829H4.87162V11.134H4.03829ZM16.268 11.134H15.4347V12.1532H16.268H17.1014V11.134H16.268ZM4.03829 11.134H4.87162C4.87162 9.18015 5.93217 7.47301 7.513 6.55855L7.09573 5.83721L6.67846 5.11587C4.60381 6.31599 3.20496 8.56115 3.20496 11.134H4.03829ZM13.2106 5.83721L12.7933 6.55855C14.3742 7.47301 15.4347 9.18015 15.4347 11.134H16.268H17.1014C17.1014 8.56115 15.7025 6.31599 13.6279 5.11587L13.2106 5.83721Z" fill="white"/>
</svg>
