<svg width="20" height="20" viewBox="0 0 20 20" fill="none" xmlns="http://www.w3.org/2000/svg">
<path d="M14.0001 10.001H6M14.0001 10.001C16.2093 10.001 18.0001 8.21011 18.0001 6.00098C18.0001 3.79184 16.2093 2.00098 14.0001 2.00098H6C3.79081 2.00098 1.99993 3.79192 2 6.00111C2.00007 8.21019 3.79091 10.001 6 10.001M14.0001 10.001C16.2093 10.001 18.0001 11.7918 18.0001 14.001C18.0001 16.2101 16.2093 18.001 14.0001 18.001H6C3.79091 18.001 2.00007 16.2102 2 14.0011C1.99993 11.7919 3.79081 10.001 6 10.001M14.4999 6.00098H9.49987M14.4999 14.001H9.49987M5.49987 14.0762V14.001M5.49987 6.00098V5.92578" stroke="white" stroke-width="1.66667" stroke-linecap="round" stroke-linejoin="round"/>
</svg>
