<svg width="135" height="28" viewBox="0 0 135 28" fill="none" xmlns="http://www.w3.org/2000/svg">
<g clip-path="url(#clip0_478_5817)">
<path d="M10.6546 9.94246C10.2857 8.68805 9.27106 7.91327 7.81374 7.91327C5.74766 7.91327 4.34568 9.49972 4.34568 12.3037C4.34568 15.1261 5.71077 16.731 7.83219 16.731C9.74146 16.731 10.876 15.6518 10.9129 13.9639H8.01666V11.8794H13.5877V13.5396C13.5877 17.0446 11.1896 19.1845 7.81374 19.1845C4.06897 19.1845 1.52327 16.565 1.52327 12.3406C1.52327 8.00551 4.23499 5.4598 7.7584 5.4598C10.7653 5.4598 13.0896 7.30452 13.4586 9.94246H10.6546ZM21.7782 11.2338V13.4105H15.6907V11.2338H21.7782ZM28.8066 19H24.1026V5.64427H28.8619C32.8834 5.64427 35.3369 8.15308 35.3369 12.3037C35.3369 16.4912 32.8834 19 28.8066 19ZM26.8696 16.6203H28.6959C31.2416 16.6203 32.5698 15.2921 32.5698 12.3037C32.5698 9.3337 31.2416 8.02395 28.7143 8.02395H26.8696V16.6203ZM36.8126 16.196C36.8126 13.9639 38.6205 13.226 40.539 13.1154C41.2584 13.0692 42.605 13.0047 43.0293 12.9862V12.1746C43.0109 11.3444 42.439 10.8464 41.4244 10.8464C40.5021 10.8464 39.9118 11.2706 39.7642 11.9532H37.1631C37.3292 10.2192 38.8418 8.85407 41.4982 8.85407C43.675 8.85407 45.7411 9.83177 45.7411 12.2483V19H43.1585V17.6165H43.0847C42.5866 18.5388 41.6458 19.1845 40.1516 19.1845C38.2331 19.1845 36.8126 18.1883 36.8126 16.196ZM39.4321 16.1222C39.4321 16.897 40.0593 17.3029 40.9263 17.3029C42.1623 17.3029 43.0478 16.4727 43.0293 15.4213V14.6834C42.6143 14.7018 41.4521 14.7664 40.9817 14.8125C40.0409 14.9047 39.4321 15.3475 39.4321 16.1222ZM53.1015 8.9832V11.0308H51.2198V15.9193C51.2198 16.7126 51.6072 16.9155 52.1607 16.9339C52.4374 16.9339 52.917 16.9155 53.249 16.8786V19.0369C52.9539 19.0922 52.4743 19.1291 51.7917 19.1291C49.8179 19.1291 48.4712 18.2437 48.4897 16.3067V11.0308H47.1061V8.9832H48.4897V6.58508H51.2198V8.9832H53.1015ZM54.3374 16.196C54.3374 13.9639 56.1452 13.226 58.0637 13.1154C58.7832 13.0692 60.1298 13.0047 60.5541 12.9862V12.1746C60.5357 11.3444 59.9638 10.8464 58.9492 10.8464C58.0268 10.8464 57.4365 11.2706 57.289 11.9532H54.6879C54.8539 10.2192 56.3666 8.85407 59.023 8.85407C61.1998 8.85407 63.2658 9.83177 63.2658 12.2483V19H60.6832V17.6165H60.6094C60.1114 18.5388 59.1706 19.1845 57.6763 19.1845C55.7578 19.1845 54.3374 18.1883 54.3374 16.196ZM56.9569 16.1222C56.9569 16.897 57.5841 17.3029 58.4511 17.3029C59.6871 17.3029 60.5725 16.4727 60.5541 15.4213V14.6834C60.139 14.7018 58.9769 14.7664 58.5065 14.8125C57.5657 14.9047 56.9569 15.3475 56.9569 16.1222ZM65.4057 19V5.64427H68.1728V11.1784H73.9652V5.64427H76.7507V19H73.9652V13.4659H68.1728V19H65.4057ZM85.3655 14.7387V8.9832H88.0957V19H85.4762V17.1922H85.3655C84.9043 18.3544 83.8344 19.1291 82.3217 19.1291C80.311 19.1291 78.9459 17.7087 78.9459 15.3659V8.9832H81.6761V14.8863C81.6761 16.0669 82.3586 16.8232 83.4285 16.8232C84.4247 16.8232 85.3655 16.1038 85.3655 14.7387ZM90.2724 19V5.64427H93.0026V10.6619H93.0764C93.4638 9.85022 94.257 8.85407 95.9357 8.85407C98.1494 8.85407 100.013 10.5697 100.013 14.0008C100.013 17.3398 98.2232 19.166 95.9357 19.166C94.2939 19.166 93.4638 18.2252 93.0764 17.3951H92.9657V19H90.2724ZM92.9473 13.9824C92.9473 15.7902 93.7221 16.9893 95.0687 16.9893C96.4707 16.9893 97.2086 15.7533 97.2086 13.9824C97.2086 12.2299 96.4707 11.0308 95.0687 11.0308C93.7036 11.0308 92.9473 12.1746 92.9473 13.9824Z" fill="#222222"/>
</g>
<defs>
<clipPath id="clip0_478_5817">
<rect width="134" height="28" fill="white" transform="translate(0.65625)"/>
</clipPath>
</defs>
</svg>
